<svg width="28" height="28" viewBox="0 0 28 28" fill="none" xmlns="http://www.w3.org/2000/svg">
<path d="M21.0006 9.33325H7.00065V6.99992H21.0006V9.33325ZM21.0006 12.8333H7.00065V10.4999H21.0006V12.8333ZM21.0006 16.3333H7.00065V13.9999H21.0006V16.3333ZM25.6673 4.66658C25.6673 4.04775 25.4215 3.45425 24.9839 3.01667C24.5463 2.57908 23.9528 2.33325 23.334 2.33325H4.66732C4.04848 2.33325 3.45499 2.57908 3.0174 3.01667C2.57982 3.45425 2.33398 4.04775 2.33398 4.66658V18.6666C2.33398 19.2854 2.57982 19.8789 3.0174 20.3165C3.45499 20.7541 4.04848 20.9999 4.66732 20.9999H21.0006L25.6673 25.6666V4.66658Z" fill="white"/>
</svg>
