<svg width="48" height="48" viewBox="0 0 48 48" fill="none" xmlns="http://www.w3.org/2000/svg">
<path d="M24 4C26.6264 4 29.2272 4.51732 31.6537 5.52241C34.0802 6.5275 36.285 8.00069 38.1421 9.85786C39.9993 11.715 41.4725 13.9198 42.4776 16.3463C43.4827 18.7728 44 21.3736 44 24C44 29.3043 41.8929 34.3914 38.1421 38.1421C34.3914 41.8929 29.3043 44 24 44C21.3736 44 18.7728 43.4827 16.3463 42.4776C13.9198 41.4725 11.715 39.9993 9.85786 38.1421C6.10714 34.3914 4 29.3043 4 24C4 18.6957 6.10714 13.6086 9.85786 9.85786C13.6086 6.10714 18.6957 4 24 4ZM24 8C22.6739 8 21.4021 8.52678 20.4645 9.46447C19.5268 10.4021 19 11.6739 19 13C19 14.3261 19.5268 15.5979 20.4645 16.5355C21.4021 17.4732 22.6739 18 24 18C25.3261 18 26.5978 17.4732 27.5355 16.5355C28.4732 15.5979 29 14.3261 29 13C29 11.6739 28.4732 10.4021 27.5355 9.46447C26.5978 8.52678 25.3261 8 24 8ZM8.8 19.06C7.94 21.68 9.38 24.5 12 25.36C14.64 26.2 17.46 24.78 18.3 22.14C19.16 19.52 17.72 16.7 15.1 15.84C12.48 15 9.64 16.42 8.8 19.06ZM39.22 19C38.36 16.42 35.54 15 32.92 15.84C30.28 16.68 28.84 19.5 29.7 22.14C30.56 24.76 33.38 26.2 36 25.34C38.62 24.5 40.06 21.66 39.22 19ZM14.62 36.92C16.84 38.56 20 38.06 21.6 35.82C23.22 33.58 22.72 30.46 20.48 28.84C18.26 27.22 15.12 27.72 13.5 29.94C11.88 32.18 12.38 35.3 14.62 36.92ZM33.4 36.92C35.64 35.3 36.14 32.18 34.52 29.94C32.9 27.7 29.76 27.2 27.54 28.84C25.3 30.46 24.8 33.58 26.42 35.82C28 38.06 31.18 38.54 33.4 36.92ZM24 21C23.2043 21 22.4413 21.3161 21.8787 21.8787C21.3161 22.4413 21 23.2043 21 24C21 24.7956 21.3161 25.5587 21.8787 26.1213C22.4413 26.6839 23.2043 27 24 27C24.7956 27 25.5587 26.6839 26.1213 26.1213C26.6839 25.5587 27 24.7956 27 24C27 23.2043 26.6839 22.4413 26.1213 21.8787C25.5587 21.3161 24.7956 21 24 21Z" fill="white"/>
</svg>
