<svg width="28" height="28" viewBox="0 0 28 28" fill="none" xmlns="http://www.w3.org/2000/svg">
<path d="M3.49935 4.66675H23.3327C23.9515 4.66675 24.545 4.91258 24.9826 5.35017C25.4202 5.78775 25.666 6.38124 25.666 7.00008V9.33341H20.9993V7.00008H5.83268V21.0001H16.3327V23.3334H3.49935C2.88051 23.3334 2.28702 23.0876 1.84943 22.65C1.41185 22.2124 1.16602 21.6189 1.16602 21.0001V7.00008C1.16602 6.38124 1.41185 5.78775 1.84943 5.35017C2.28702 4.91258 2.88051 4.66675 3.49935 4.66675ZM19.8327 11.6667H26.8327C27.1421 11.6667 27.4389 11.7897 27.6576 12.0085C27.8764 12.2272 27.9994 12.524 27.9994 12.8334V24.5001C27.9994 24.8095 27.8764 25.1062 27.6576 25.325C27.4389 25.5438 27.1421 25.6667 26.8327 25.6667H19.8327C19.5233 25.6667 19.2265 25.5438 19.0077 25.325C18.7889 25.1062 18.666 24.8095 18.666 24.5001V12.8334C18.666 12.524 18.7889 12.2272 19.0077 12.0085C19.2265 11.7897 19.5233 11.6667 19.8327 11.6667ZM20.9993 14.0001V22.1667H25.666V14.0001H20.9993Z" fill="white"/>
</svg>
