<svg fill="none" height="100%" width="100%" viewBox="0 0 300 300" xmlns:xlink="http://www.w3.org/1999/xlink" xmlns="http://www.w3.org/2000/svg"><g transform="matrix(1,0,0,1,-810,-390)" id="i0"><g><g transform="translate(956.815,574.07)"><g transform="scale(0,0)"><animateTransform repeatCount="indefinite" type="scale" attributeName="transform" dur="6.033s" begin="0s" calcMode="spline" values="0 0; 0 0; 1 1; 1 1; 0.97 0.97; 1.03 1.03; 0.97 0.97; 1.03 1.03; 0.97 0.97; 1.03 1.03; 0.97 0.97; 1.03 1.03; 0.97 0.97; 1.03 1.03; 0.97 0.97; 1.03 1.03; 0.97 0.97; 1.03 1.03; 0.97 0.97; 1.03 1.03; 0.97 0.97; 1.03 1.03; 0.97 0.97; 1.03 1.03; 0.97 0.97; 1.03 1.03; 0.97 0.97; 1.03 1.03; 0.97 0.97; 1.03 1.03; 0.97 0.97; 1.03 1.03; 0.97 0.97; 1.03 1.03; 0.97 0.97; 1.03 1.03" keyTimes="0; 0.198895; 0.281768; 0.370166; 0.392265; 0.414365; 0.436464; 0.458564; 0.480663; 0.502762; 0.524862; 0.546961; 0.569061; 0.59116; 0.61326; 0.635359; 0.657459; 0.679558; 0.701657; 0.723757; 0.751381; 0.773481; 0.79558; 0.81768; 0.839779; 0.861878; 0.883978; 0.906077; 0.928177; 0.950276; 0.972376; 0.994475; 1; 1; 1; 1" keySplines="0 0 1 1; 1 0 0.833 0.833; 0 0 1 1; 0.333 0 0 1; 0.333 0 0 1; 0.333 0 0 1; 0.333 0 0 1; 0.333 0 0 1; 0.333 0 0 1; 0.333 0 0 1; 0.333 0 0 1; 0.333 0 0 1; 0.333 0 0 1; 0.333 0 0 1; 0.333 0 0 1; 0.333 0 0 1; 0.333 0 0 1; 0.333 0 0 1; 0.333 0 0 1; 0.167 0 0 1; 0.333 0 0 1; 0.333 0 0 1; 0.333 0 0 1; 0.333 0 0 1; 0.333 0 0 1; 0.333 0 0 1; 0.333 0 0 1; 0.333 0 0 1; 0.333 0 0 1; 0.333 0 0 1; 0.333 0 0 1; 0.333 0 0 1; 0.333 0 0 1; 0.333 0 0 1; 0.333 0 0 1" fill="freeze" /><g id="i1" transform="translate(0,3.11)"><path stroke-linejoin="round" stroke-linecap="round" stroke-width="3" stroke="#3d4247" d="M12.383,2.913C12.383,2.913,-12.383,2.913,-12.383,2.913C-12.383,2.913,-12.383,-2.913,-12.383,-2.913C-12.383,-2.913,12.383,-2.913,12.383,-2.913C12.383,-2.913,12.383,2.913,12.383,2.913Z" /></g></g></g></g><g id="i2" transform="matrix(1,0,0,1,0,0)"><g><g transform="translate(945.905,538.207)"><animateTransform repeatCount="indefinite" type="translate" attributeName="transform" dur="6.033s" begin="0s" calcMode="spline" values="945.905 538.207; 945.905 538.207; 945.155 546.332; 945.155 546.332" keyTimes="0; 0.154696; 0.237569; 1" keySplines="0 0 1 1; 1 0 0.833 0.833; 0 0 1 1" fill="freeze" /><g transform="rotate(138)"><animateTransform repeatCount="indefinite" type="rotate" attributeName="transform" dur="6.033s" begin="0s" calcMode="spline" values="138; 138; 0; 0" keyTimes="0; 0.154696; 0.237569; 1" keySplines="0 0 1 1; 1 0 0.833 0.833; 0 0 1 1" fill="freeze" /><g transform="scale(0,0)"><animateTransform repeatCount="indefinite" type="scale" attributeName="transform" dur="6.033s" begin="0s" calcMode="spline" values="0 0; 0 0; 1 1; 1 1; 0.965 1.03; 1 0.968; 0.965 1.03; 1 0.968; 0.965 1.03; 1 0.968; 0.965 1.03; 1 0.968; 0.965 1.03; 1 0.968; 0.965 1.03; 1 0.968; 0.965 1.03; 1 0.968; 0.965 1.03; 1 0.968; 0.965 1.03; 1 0.968; 0.965 1.03; 1 0.968; 0.965 1.03; 1 0.968; 0.965 1.03; 1 0.968; 0.965 1.03; 1 0.968; 0.965 1.03; 1 0.968; 0.965 1.03; 1 0.968; 0.965 1.03; 1 0.968" keyTimes="0; 0.138121; 0.220994; 0.36464; 0.38674; 0.408839; 0.430939; 0.453039; 0.475139; 0.497238; 0.519337; 0.541437; 0.563536; 0.585636; 0.607735; 0.629834; 0.651934; 0.674033; 0.696133; 0.718232; 0.745856; 0.767956; 0.790056; 0.812155; 0.834254; 0.856354; 0.878453; 0.900553; 0.922652; 0.944752; 0.966851; 0.98895; 1; 1; 1; 1" keySplines="0 0 1 1; 1 0 0.833 0.833; 0 0 1 1; 0.333 0 0 1; 0.333 0 0 1; 0.333 0 0 1; 0.333 0 0 1; 0.333 0 0 1; 0.333 0 0 1; 0.333 0 0 1; 0.333 0 0 1; 0.333 0 0 1; 0.333 0 0 1; 0.333 0 0 1; 0.333 0 0 1; 0.333 0 0 1; 0.333 0 0 1; 0.333 0 0 1; 0.333 0 0 1; 0.167 0 0 1; 0.333 0 0 1; 0.333 0 0 1; 0.333 0 0 1; 0.333 0 0 1; 0.333 0 0 1; 0.333 0 0 1; 0.333 0 0 1; 0.333 0 0 1; 0.333 0 0 1; 0.333 0 0 1; 0.333 0 0 1; 0.333 0 0 1; 0.333 0 0 1; 0.333 0 0 1; 0.333 0 0 1" fill="freeze" /><g id="i3" transform="translate(11.5,9.75)"><path stroke-linejoin="round" stroke-linecap="round" stroke-width="3" stroke="#3d4247" d="M28.462,15.614C28.462,17.041,27.305,18.201,25.878,18.201C25.878,18.201,-25.875,18.201,-25.875,18.201C-27.304,18.201,-28.462,17.041,-28.462,15.614C-28.462,15.614,-28.462,-15.617,-28.462,-15.617C-28.462,-17.044,-27.304,-18.201,-25.875,-18.201C-25.875,-18.201,25.878,-18.201,25.878,-18.201C27.305,-18.201,28.462,-17.044,28.462,-15.617C28.462,-15.617,28.462,15.614,28.462,15.614Z" /></g></g></g></g></g><g><g transform="translate(958.365,537.723)"><g transform="scale(0,0)"><animateTransform repeatCount="indefinite" type="scale" attributeName="transform" dur="6.033s" begin="0s" calcMode="spline" values="0 0; 0 0; 1 1; 1 1" keyTimes="0; 0.237569; 0.320442; 1" keySplines="0 0 1 1; 1 0 0.833 0.833; 0 0 1 1" fill="freeze" /><g id="i4" transform="translate(-2,9.625)"><path stroke-linejoin="round" stroke-linecap="round" stroke-width="3" stroke="#824dff" d="M18.234,-9.467C18.234,-9.467,18.234,3.857,18.234,3.857C18.234,6.956,15.721,9.467,12.622,9.467C12.622,9.467,-12.622,9.467,-12.622,9.467C-15.722,9.467,-18.234,6.956,-18.234,3.857C-18.234,3.857,-18.234,-9.467,-18.234,-9.467" /></g></g></g></g><g><g transform="translate(955.804,555.362)"><animateTransform repeatCount="indefinite" type="translate" attributeName="transform" dur="6.033s" begin="0s" calcMode="spline" values="955.804 555.362; 955.804 555.362; 955.804 556.062; 955.804 554.662; 955.804 556.062; 955.804 554.662; 955.804 556.062; 955.804 554.662; 955.804 556.062; 955.804 554.662; 955.804 556.062; 955.804 554.662; 955.804 556.062; 955.804 554.662; 955.804 556.062; 955.804 554.662; 955.804 556.062; 955.804 554.662; 955.804 556.062; 955.804 554.662; 955.804 556.062; 955.804 554.662; 955.804 556.062; 955.804 554.662; 955.804 556.062; 955.804 554.662; 955.804 556.062; 955.804 554.662; 955.804 556.062; 955.804 554.662; 955.804 556.062; 955.804 554.662; 955.804 556.062; 955.804 554.662" keyTimes="0; 0.370166; 0.39779; 0.425414; 0.453039; 0.480663; 0.508287; 0.535912; 0.563536; 0.59116; 0.618784; 0.646409; 0.674033; 0.701657; 0.729282; 0.756906; 0.78453; 0.812155; 0.839779; 0.867403; 0.895028; 0.922652; 0.950276; 0.9779; 1; 1; 1; 1; 1; 1; 1; 1; 1; 1" keySplines="0 0 1 1; 0.333 0 0.667 1; 0.333 0 0.667 1; 0.333 0 0.667 1; 0.333 0 0.667 1; 0.333 0 0.667 1; 0.333 0 0.667 1; 0.333 0 0.667 1; 0.333 0 0.667 1; 0.333 0 0.667 1; 0.333 0 0.667 1; 0.333 0 0.667 1; 0.333 0 0.667 1; 0.333 0 0.667 1; 0.333 0 0.667 1; 0.333 0 0.667 1; 0.333 0 0.667 1; 0.333 0 0.667 1; 0.333 0 0.667 1; 0.333 0 0.667 1; 0.333 0 0.667 1; 0.333 0 0.667 1; 0.333 0 0.667 1; 0.333 0 0.667 1; 0.333 0 0.667 1; 0.333 0 0.667 1; 0.333 0 0.667 1; 0.333 0 0.667 1; 0.333 0 0.667 1; 0.333 0 0.667 1; 0.333 0 0.667 1; 0.333 0 0.667 1; 0.333 0 0.667 1" fill="freeze" /><g transform="scale(0,0)"><animateTransform repeatCount="indefinite" type="scale" attributeName="transform" dur="6.033s" begin="0s" calcMode="spline" values="0 0; 0 0; 1 1; 1 1; 0.95 1.03; 1.03 0.95; 0.95 1.03; 1.03 0.95; 0.95 1.03; 1.03 0.95; 0.95 1.03; 1.03 0.95; 0.95 1.03; 1.03 0.95; 0.95 1.03; 1.03 0.95; 0.95 1.03; 1.03 0.95; 0.95 1.03; 1.03 0.95; 0.95 1.03; 1.03 0.95; 0.95 1.03; 1.03 0.95; 0.95 1.03; 1.03 0.95; 0.95 1.03; 1.03 0.95; 0.95 1.03; 1.03 0.95; 0.95 1.03; 1.03 0.95; 0.95 1.03; 1.03 0.95; 0.95 1.03; 1.03 0.95" keyTimes="0; 0.265193; 0.348066; 0.370166; 0.39779; 0.425414; 0.453039; 0.480663; 0.508287; 0.535912; 0.563536; 0.59116; 0.618785; 0.646409; 0.674033; 0.701658; 0.729282; 0.756906; 0.784531; 0.812155; 0.839779; 0.867404; 0.895028; 0.922652; 0.950276; 0.9779; 1; 1; 1; 1; 1; 1; 1; 1; 1; 1" keySplines="0 0 1 1; 1 0 0.833 0.833; 0 0 1 1; 0.333 0 0 1; 0.333 0 0 1; 0.333 0 0 1; 0.333 0 0 1; 0.333 0 0 1; 0.333 0 0 1; 0.333 0 0 1; 0.333 0 0 1; 0.333 0 0 1; 0.333 0 0 1; 0.333 0 0 1; 0.333 0 0 1; 0.333 0 0 1; 0.333 0 0 1; 0.333 0 0 1; 0.333 0 0 1; 0.333 0 0 1; 0.333 0 0 1; 0.333 0 0 1; 0.333 0 0 1; 0.333 0 0 1; 0.333 0 0 1; 0.333 0 0 1; 0.333 0 0 1; 0.333 0 0 1; 0.333 0 0 1; 0.333 0 0 1; 0.333 0 0 1; 0.333 0 0 1; 0.333 0 0 1; 0.333 0 0 1; 0.333 0 0 1" fill="freeze" /><g id="i5" transform="translate(0,3.5)"><path stroke-linejoin="round" stroke-linecap="round" stroke-width="3" stroke="#824dff" fill="#242424" d="M13.606,7.236C13.606,7.236,-13.606,7.236,-13.606,7.236C-13.606,7.236,-13.606,-7.236,-13.606,-7.236C-13.606,-7.236,13.606,-7.236,13.606,-7.236C13.606,-7.236,13.606,7.236,13.606,7.236Z" /></g></g></g></g></g><g id="i6" transform="matrix(1,0,0,1,0,0)"><g><g transform="translate(931.258,515.771)"><animateTransform repeatCount="indefinite" type="translate" attributeName="transform" dur="6.033s" begin="0s" calcMode="spline" values="931.258 515.771; 931.258 515.771; 974.496 519.283; 974.496 519.283" keyTimes="0; 0.138121; 0.226519; 1" keySplines="0 0 1 1; 1 0 0.833 0.833; 0 0 1 1" fill="freeze" /><g transform="rotate(0)"><animateTransform repeatCount="indefinite" type="rotate" attributeName="transform" dur="6.033s" begin="0s" calcMode="spline" values="0; 0; 3600" keyTimes="0; 0.370166; 1" keySplines="0 0 1 1; 0.333 0 0.833 0.833" fill="freeze" /><g id="i7" transform="scale(0.05,0)"><animateTransform repeatCount="indefinite" type="scale" attributeName="transform" dur="6.033s" begin="0s" calcMode="spline" values="0.05 0; 0.05 0; 1 1; 1 1" keyTimes="0; 0.138121; 0.220994; 1" keySplines="0 0 1 1; 1 0.014 0.833 0.833; 0 0 1 1" fill="freeze" /><path stroke-linejoin="round" stroke-linecap="round" stroke-width="3" stroke="#3d4247" fill-rule="evenodd" d="M-0.001,-18.118C-9.999,-18.118,-18.119,-10.005,-18.119,0.002C-18.119,10.007,-9.999,18.119,-0.001,18.119C10.001,18.119,18.119,10.007,18.119,0.002C18.119,-10.005,10.001,-18.118,-0.001,-18.118ZM-5.3,-0.361C-5.3,-3.274,-2.937,-5.635,-0.025,-5.635C2.89,-5.635,5.251,-3.274,5.251,-0.361C5.251,2.553,2.89,4.914,-0.025,4.914C-2.937,4.914,-5.3,2.553,-5.3,-0.361ZM0.054,4.864C-2.859,4.864,-5.221,2.503,-5.221,-0.411C-5.221,-3.326,-2.859,-5.686,0.054,-5.686C2.967,-5.686,5.328,-3.326,5.328,-0.411C5.328,2.503,2.967,4.864,0.054,4.864ZM-0.099,4.914C-3.012,4.914,-5.373,2.553,-5.373,-0.361C-5.373,-3.274,-3.012,-5.635,-0.099,-5.635C2.816,-5.635,5.177,-3.274,5.177,-0.361C5.177,2.553,2.816,4.914,-0.099,4.914Z"><animate repeatCount="indefinite" attributeName="d" dur="6.033s" begin="0s" calcMode="spline" values="M-0.001,-18.118C-9.999,-18.118,-18.119,-10.005,-18.119,0.002C-18.119,10.007,-9.999,18.119,-0.001,18.119C10.001,18.119,18.119,10.007,18.119,0.002C18.119,-10.005,10.001,-18.118,-0.001,-18.118ZM-5.3,-0.361C-5.3,-3.274,-2.937,-5.635,-0.025,-5.635C2.89,-5.635,5.251,-3.274,5.251,-0.361C5.251,2.553,2.89,4.914,-0.025,4.914C-2.937,4.914,-5.3,2.553,-5.3,-0.361ZM0.054,4.864C-2.859,4.864,-5.221,2.503,-5.221,-0.411C-5.221,-3.326,-2.859,-5.686,0.054,-5.686C2.967,-5.686,5.328,-3.326,5.328,-0.411C5.328,2.503,2.967,4.864,0.054,4.864ZM-0.099,4.914C-3.012,4.914,-5.373,2.553,-5.373,-0.361C-5.373,-3.274,-3.012,-5.635,-0.099,-5.635C2.816,-5.635,5.177,-3.274,5.177,-0.361C5.177,2.553,2.816,4.914,-0.099,4.914Z; M-0.001,-18.118C-9.999,-18.118,-18.119,-10.005,-18.119,0.002C-18.119,10.007,-9.999,18.119,-0.001,18.119C10.001,18.119,18.119,10.007,18.119,0.002C18.119,-10.005,10.001,-18.118,-0.001,-18.118ZM-5.3,-0.361C-5.3,-3.274,-2.937,-5.635,-0.025,-5.635C2.89,-5.635,5.251,-3.274,5.251,-0.361C5.251,2.553,2.89,4.914,-0.025,4.914C-2.937,4.914,-5.3,2.553,-5.3,-0.361ZM0.054,4.864C-2.859,4.864,-5.221,2.503,-5.221,-0.411C-5.221,-3.326,-2.859,-5.686,0.054,-5.686C2.967,-5.686,5.328,-3.326,5.328,-0.411C5.328,2.503,2.967,4.864,0.054,4.864ZM-0.099,4.914C-3.012,4.914,-5.373,2.553,-5.373,-0.361C-5.373,-3.274,-3.012,-5.635,-0.099,-5.635C2.816,-5.635,5.177,-3.274,5.177,-0.361C5.177,2.553,2.816,4.914,-0.099,4.914Z; M-0.001,-18.118C-9.999,-18.118,-18.119,-10.005,-18.119,0.002C-18.119,10.007,-9.999,18.119,-0.001,18.119C10.001,18.119,18.119,10.007,18.119,0.002C18.119,-10.005,10.001,-18.118,-0.001,-18.118ZM-12.457,-4.043C-12.457,-6.956,-10.094,-9.317,-7.182,-9.317C-4.267,-9.317,-1.906,-6.956,-1.906,-4.043C-1.906,-1.129,-4.267,1.232,-7.182,1.232C-10.094,1.232,-12.457,-1.129,-12.457,-4.043ZM0.054,13.58C-2.859,13.58,-5.221,11.219,-5.221,8.305C-5.221,5.39,-2.859,3.03,0.054,3.03C2.967,3.03,5.328,5.39,5.328,8.305C5.328,11.219,2.967,13.58,0.054,13.58ZM7.181,1.232C4.268,1.232,1.907,-1.129,1.907,-4.043C1.907,-6.956,4.268,-9.317,7.181,-9.317C10.096,-9.317,12.457,-6.956,12.457,-4.043C12.457,-1.129,10.096,1.232,7.181,1.232Z; M-0.001,-18.118C-9.999,-18.118,-18.119,-10.005,-18.119,0.002C-18.119,10.007,-9.999,18.119,-0.001,18.119C10.001,18.119,18.119,10.007,18.119,0.002C18.119,-10.005,10.001,-18.118,-0.001,-18.118ZM-12.457,-4.043C-12.457,-6.956,-10.094,-9.317,-7.182,-9.317C-4.267,-9.317,-1.906,-6.956,-1.906,-4.043C-1.906,-1.129,-4.267,1.232,-7.182,1.232C-10.094,1.232,-12.457,-1.129,-12.457,-4.043ZM0.054,13.58C-2.859,13.58,-5.221,11.219,-5.221,8.305C-5.221,5.39,-2.859,3.03,0.054,3.03C2.967,3.03,5.328,5.39,5.328,8.305C5.328,11.219,2.967,13.58,0.054,13.58ZM7.181,1.232C4.268,1.232,1.907,-1.129,1.907,-4.043C1.907,-6.956,4.268,-9.317,7.181,-9.317C10.096,-9.317,12.457,-6.956,12.457,-4.043C12.457,-1.129,10.096,1.232,7.181,1.232Z" keyTimes="0; 0.270718; 0.353591; 1" keySplines="0 0 1 1; 0.656 0 0 1; 0 0 1 1" fill="freeze" /></path></g></g></g></g><g id="i8" opacity="0"><animate repeatCount="indefinite" attributeName="opacity" dur="6.033s" begin="0s" fill="freeze" values="0; 0; 1; 1" keyTimes="0; 0.19337; 0.198895; 1" keySplines="0 0 1 1; 0 0 1 1; 0 0 1 1" calcMode="spline" /><path d="M948.007,510.04C948.007,510.04,951.099,516.477,951.099,516.477" stroke-linejoin="round" stroke-linecap="round" stroke-width="3" stroke="#3d4247"><animate repeatCount="indefinite" attributeName="d" dur="6.033s" begin="0s" calcMode="spline" values="M948.007,510.04C948.007,510.04,951.099,516.477,951.099,516.477; M948.007,510.04C948.007,510.04,951.099,516.477,951.099,516.477; M941.132,503.602C941.132,503.602,952.536,511.415,952.536,511.415; M939.319,502.602C939.319,502.602,950.599,506.79,950.599,506.79; M933.236,501.373C933.236,501.373,957.911,502.519,957.911,502.519; M934.215,501.332C934.215,501.332,968.724,500.748,968.724,500.748; M933.257,501.29C933.257,501.29,976.099,500.665,976.099,500.665; M933.132,501.165C933.132,501.165,974.318,501.259,974.318,501.259; M933.632,501.165C933.632,501.165,974.599,501.165,974.599,501.165; M933.632,501.165C933.632,501.165,974.599,501.165,974.599,501.165" keyTimes="0; 0.198895; 0.20442; 0.209945; 0.21547; 0.220995; 0.243094; 0.281768; 0.331492; 1" keySplines="0 0 1 1; 0 0 1 1; 0 0 1 1; 0 0 1 1; 0 0 1 1; 0 0 1 1; 0 0 1 1; 0 0 1 1; 0 0 1 1" fill="freeze" /></path></g><g id="i9" transform="matrix(1,0,0,1,0,0)"><g><g transform="translate(943.91,560.908)"><g transform="scale(0.01,1)"><animateTransform repeatCount="indefinite" type="scale" attributeName="transform" dur="6.033s" begin="0s" calcMode="spline" values="0.01 1; 1 1; 1 1" keyTimes="0; 0.088398; 1" keySplines="1 0 0.833 0.833; 0 0 1 1" fill="freeze" /><g id="i10" transform="translate(-949.102,-560.908)"><g><g transform="translate(949,578.483)"><animateTransform repeatCount="indefinite" type="translate" attributeName="transform" dur="6.033s" begin="0s" calcMode="spline" values="949 578.483; 949.035 515.033; 949.035 515.033; 938.285 519.283; 938.285 519.283" keyTimes="0; 0.082873; 0.127072; 0.18232; 1" keySplines="1 0 0.833 0.833; 0 0 1 1; 1 0 0.833 0.833; 0 0 1 1" fill="freeze" /><g id="i11" transform="scale(0,0)"><animateTransform repeatCount="indefinite" type="scale" attributeName="transform" dur="6.033s" begin="0s" calcMode="spline" values="0 0; 1 1; 1 1" keyTimes="0; 0.082873; 1" keySplines="1 0 0.833 0.833; 0 0 1 1" fill="freeze" /><path stroke-linejoin="round" stroke-linecap="round" stroke-width="3" stroke="#3d4247" fill="#242424" d="M0,-18.118C-9.998,-18.118,-18.119,-10.006,-18.119,0.001C-18.119,10.007,-9.998,18.118,0,18.118C10.002,18.118,18.119,10.007,18.119,0.001C18.119,-10.006,10.002,-18.118,0,-18.118Z" /></g></g></g></g></g></g></g><g><g transform="translate(945.959,537.847)"><g transform="rotate(88)"><animateTransform repeatCount="indefinite" type="rotate" attributeName="transform" dur="6.033s" begin="0s" calcMode="spline" values="88; 88; -12; -12" keyTimes="0; 0.127072; 0.18232; 1" keySplines="0 0 1 1; 1 0 0.833 0.833; 0 0 1 1" fill="freeze" /><g id="i12" transform="translate(-945.959,-537.847)"><g><g transform="translate(945.241,538.804)"><animateTransform repeatCount="indefinite" type="translate" attributeName="transform" dur="6.033s" begin="0s" calcMode="spline" values="945.241 538.804; 945.241 538.804; 946.409 538.036; 946.409 538.036" keyTimes="0; 0.127072; 0.18232; 1" keySplines="0 0 1 1; 1 0.667 0.833 0.833; 0 0 1 1" fill="freeze" /><g transform="scale(0,0)"><animateTransform repeatCount="indefinite" type="scale" attributeName="transform" dur="6.033s" begin="0s" calcMode="spline" values="0 0; 0 0; 1 1; 1 1" keyTimes="0; 0.077348; 0.160221; 1" keySplines="0 0 1 1; 1 0.014 0.833 0.833; 0 0 1 1" fill="freeze" /><g id="i13" transform="translate(-946.409,-538.036)"><g id="i14" transform="matrix(1,0,0,1,938.285,519.284)"><path stroke-linejoin="round" stroke-linecap="round" stroke-width="3" stroke="#3d4247" fill-rule="evenodd" d="M0,-9.174C-5.062,-9.174,-9.174,-5.07,-9.174,0C-9.174,5.063,-5.062,9.173,0,9.173C5.064,9.173,9.174,5.063,9.174,0C9.174,-5.07,5.064,-9.174,0,-9.174ZM0,3.325C-1.836,3.325,-3.325,1.836,-3.325,0C-3.325,-1.837,-1.836,-3.325,0,-3.325C1.836,-3.325,3.326,-1.837,3.326,0C3.326,1.836,1.836,3.325,0,3.325Z" /></g><g id="i15" transform="matrix(1,0,0,1,0,0)"><g id="i16" transform="matrix(1,0,0,1,936.733,532.553)"><path stroke-linejoin="round" stroke-linecap="round" stroke-width="3" stroke="#3d4247" d="M-5.827,-7.823C-5.827,-7.823,5.827,7.824,5.827,7.824" /></g><g id="i17" transform="matrix(1,0,0,1,948.915,527.65)"><path stroke-linejoin="round" stroke-linecap="round" stroke-width="3" stroke="#3d4247" d="M-1.488,-9.19C-1.488,-9.19,1.488,9.19,1.488,9.19" /></g></g></g></g></g></g><g><g transform="translate(972.774,529.51)"><animateTransform repeatCount="indefinite" type="translate" attributeName="transform" dur="6.033s" begin="0s" calcMode="spline" values="972.774 529.51; 972.774 529.51; 946.198 537.976; 946.198 537.976" keyTimes="0; 0.027624; 0.110497; 1" keySplines="0 0 1 1; 1 0 0.833 0.833; 0 0 1 1" fill="freeze" /><g id="i18" transform="scale(0,0)"><animateTransform repeatCount="indefinite" type="scale" attributeName="transform" dur="6.033s" begin="0s" calcMode="spline" values="0 0; 0 0; 1 1; 1 1" keyTimes="0; 0.027624; 0.110497; 1" keySplines="0 0 1 1; 1 0 0.833 0.833; 0 0 1 1" fill="freeze" /><path stroke-linejoin="round" stroke-linecap="round" stroke-width="3" stroke="#3d4247" fill="#242424" d="M4.359,-0.001C4.359,2.406,2.406,4.357,0,4.357C-2.408,4.357,-4.359,2.406,-4.359,-0.001C-4.359,-2.407,-2.408,-4.357,0,-4.357C2.406,-4.357,4.359,-2.407,4.359,-0.001Z" /></g></g></g></g></g></g></g></g></g><g id="i19" transform="matrix(1,0,0,1,0,0)"><g><g transform="translate(928.339,546.75)"><g transform="scale(0,0)"><animateTransform repeatCount="indefinite" type="scale" attributeName="transform" dur="6.033s" begin="0s" calcMode="spline" values="0 0; 0 0; 1 1; 1 1" keyTimes="0; 0.198895; 0.281768; 1" keySplines="0 0 1 1; 1 0 0.833 0.833; 0 0 1 1" fill="freeze" /><g id="i20" transform="translate(-2.832,0)"><path stroke-linejoin="round" stroke-linecap="round" stroke-width="3" stroke="#3d4247" d="M-2.792,3.479C-2.792,3.479,2.792,3.479,2.792,3.479C2.792,3.479,2.792,-3.479,2.792,-3.479C2.792,-3.479,-2.792,-3.479,-2.792,-3.479C-2.792,-3.479,-2.792,3.479,-2.792,3.479Z" /></g></g></g></g><g><g transform="translate(922.528,546.023)"><g transform="scale(0,0)"><animateTransform repeatCount="indefinite" type="scale" attributeName="transform" dur="6.033s" begin="0s" calcMode="spline" values="0 0; 0 0; 1 1; 1 1" keyTimes="0; 0.226519; 0.309392; 1" keySplines="0 0 1 1; 1 0 0.833 0.833; 0 0 1 1" fill="freeze" /><g id="i21" transform="translate(-1.347,0)"><path stroke-linejoin="round" stroke-linecap="round" stroke-width="3" stroke="#3d4247" d="M-1.456,7.769C0.152,7.769,1.456,6.464,1.456,4.857C1.456,4.857,1.456,-4.856,1.456,-4.856C1.456,-6.466,0.152,-7.769,-1.456,-7.769C-1.456,-7.769,-1.456,7.769,-1.456,7.769Z" /></g></g></g></g></g><g id="i22" transform="matrix(1,0,0,1,0,0)"><g><g transform="translate(985.098,556.08)"><g transform="scale(0.29,0)"><animateTransform repeatCount="indefinite" type="scale" attributeName="transform" dur="6.033s" begin="0s" calcMode="spline" values="0.29 0; 0.29 0; 1 1; 1 1" keyTimes="0; 0.209945; 0.265193; 1" keySplines="0 0 1 1; 1 0.011 0.833 0.833; 0 0 1 1" fill="freeze" /><g id="i23" transform="translate(3.5,0)"><path stroke-linejoin="round" stroke-linecap="round" stroke-width="3" stroke="#3d4247" d="M3.48,10.059C3.48,10.059,-3.481,10.059,-3.481,10.059C-3.481,10.059,-3.481,-10.058,-3.481,-10.058C-3.481,-10.058,3.48,-10.058,3.48,-10.058C3.48,-10.058,3.48,10.059,3.48,10.059Z" /></g></g></g></g><g><g transform="translate(992.161,556.08)"><g transform="scale(0.29,0)"><animateTransform repeatCount="indefinite" type="scale" attributeName="transform" dur="6.033s" begin="0s" calcMode="spline" values="0.29 0; 0.29 0; 1 1; 1 1" keyTimes="0; 0.243094; 0.298343; 1" keySplines="0 0 1 1; 1 0.011 0.833 0.833; 0 0 1 1" fill="freeze" /><g id="i24" transform="translate(4.125,0)"><path stroke-linejoin="round" stroke-linecap="round" stroke-width="3" stroke="#3d4247" d="M-4.208,-10.059C-4.208,-10.059,-4.208,10.058,-4.208,10.058C-4.208,10.058,-4.249,17.342,4.249,15.279C4.249,15.279,4.249,-15.276,4.249,-15.276C-4.249,-17.341,-4.208,-10.059,-4.208,-10.059Z" /></g></g></g></g></g></g></svg>